<?xml version="1.0" encoding="UTF-8" standalone="no"?>
<!-- Created with Inkscape (http://www.inkscape.org/) -->

<svg
   width="112.09187"
   height="102.40479"
   viewBox="0 0 29.657641 27.094601"
   version="1.1"
   id="svg5"
   inkscape:version="1.1.1 (3bf5ae0d25, 2021-09-20)"
   sodipodi:docname="moon.svg"
   xmlns:inkscape="http://www.inkscape.org/namespaces/inkscape"
   xmlns:sodipodi="http://sodipodi.sourceforge.net/DTD/sodipodi-0.dtd"
   xmlns="http://www.w3.org/2000/svg"
   xmlns:svg="http://www.w3.org/2000/svg">
  <sodipodi:namedview
     id="namedview7"
     pagecolor="#505050"
     bordercolor="#eeeeee"
     borderopacity="1"
     inkscape:pageshadow="0"
     inkscape:pageopacity="0"
     inkscape:pagecheckerboard="0"
     inkscape:document-units="mm"
     showgrid="false"
     showborder="false"
     inkscape:zoom="3.8880556"
     inkscape:cx="15.640393"
     inkscape:cy="66.939845"
     inkscape:window-width="1920"
     inkscape:window-height="1009"
     inkscape:window-x="0"
     inkscape:window-y="0"
     inkscape:window-maximized="1"
     inkscape:current-layer="g13645"
     units="px"
     fit-margin-top="0"
     fit-margin-left="0"
     fit-margin-right="0"
     fit-margin-bottom="0"
     inkscape:rotation="-1" />
  <defs
     id="defs2">
    <inkscape:path-effect
       effect="bspline"
       id="path-effect30475"
       is_visible="true"
       lpeversion="1"
       weight="33.333333"
       steps="2"
       helper_size="0"
       apply_no_weight="true"
       apply_with_weight="true"
       only_selected="false" />
    <inkscape:path-effect
       effect="bspline"
       id="path-effect12239"
       is_visible="true"
       lpeversion="1"
       weight="33.333333"
       steps="2"
       helper_size="0"
       apply_no_weight="true"
       apply_with_weight="true"
       only_selected="false" />
    <inkscape:path-effect
       effect="bspline"
       id="path-effect6835"
       is_visible="true"
       lpeversion="1"
       weight="33.333333"
       steps="2"
       helper_size="0"
       apply_no_weight="true"
       apply_with_weight="true"
       only_selected="false" />
    <inkscape:path-effect
       effect="bspline"
       id="path-effect6698"
       is_visible="true"
       lpeversion="1"
       weight="33.333333"
       steps="2"
       helper_size="0"
       apply_no_weight="true"
       apply_with_weight="true"
       only_selected="false" />
  </defs>
  <g
     inkscape:label="Layer 1"
     inkscape:groupmode="layer"
     id="layer1"
     transform="translate(-282.99871,-91.190509)">
    <g
       id="g13645"
       transform="matrix(0.18432629,0,0,0.18426255,242.9741,85.394538)"
       style="stroke-width:5.4261">
      <path
         id="path30469"
         style="opacity:0.924588;fill:#ffe02f;stroke-width:102.54;stroke-linecap:round;stroke-linejoin:round;stroke-miterlimit:4;stroke-dasharray:none;paint-order:normal"
         d="m 1136.582,620.04102 c 8e-4,-0.0238 0,-0.0465 0,-0.0703 0.038,-1.18367 0.051,-2.37951 0.045,-3.57226 -0.01,-1.19276 -0.031,-2.38226 -0.065,-3.55274 -0.033,-1.17047 -0.077,-2.32166 -0.1387,-3.45508 -0.062,-1.13341 -0.1407,-2.24963 -0.25,-3.34765 -0.1092,-1.09802 -0.2474,-2.17791 -0.4238,-3.24219 -0.1764,-1.06427 -0.3912,-2.11234 -0.6543,-3.14453 -0.2631,-1.0322 -0.5737,-2.0487 -0.918,-3.03711 -0.3442,-0.98841 -0.7227,-1.94969 -1.1171,-2.86914 -0.3945,-0.91945 -0.805,-1.79773 -1.2188,-2.62305 -0.4138,-0.82532 -0.8302,-1.59672 -1.2324,-2.30273 -0.4022,-0.70601 -0.7909,-1.34738 -1.1758,-1.94531 -0.3849,-0.59793 -0.7653,-1.15191 -1.1523,-1.68946 -0.7741,-1.07508 -1.5723,-2.0776 -2.4707,-3.19726 -0.8985,-1.11967 -1.8972,-2.35726 -2.9961,-3.64453 -0.5495,-0.64364 -1.1234,-1.3005 -1.7227,-1.96094 -0.5993,-0.66045 -1.2241,-1.32386 -1.873,-1.98438 -0.6489,-0.66053 -1.3227,-1.31667 -2.0137,-1.95703 -0.691,-0.64035 -1.3988,-1.26472 -2.1172,-1.86133 -0.7184,-0.59661 -1.4465,-1.16602 -2.1777,-1.69531 -0.7313,-0.52929 -1.466,-1.01863 -2.1953,-1.45703 -0.7294,-0.43841 -1.4546,-0.82495 -2.1485,-1.20898 -0.6938,-0.38404 -1.3573,-0.76502 -1.9629,-1.19141 -0.3028,-0.2132 -0.5904,-0.43776 -0.8613,-0.67969 -0.2709,-0.24192 -0.5235,-0.50241 -0.7559,-0.78515 -0.2323,-0.28275 -0.4436,-0.58817 -0.6308,-0.92383 -0.1872,-0.33566 -0.3509,-0.7009 -0.4864,-1.10156 -0.1355,-0.40067 -0.2433,-0.83635 -0.33,-1.30274 -0.087,-0.46639 -0.1528,-0.96289 -0.2032,-1.48437 -0.1006,-1.04296 -0.1399,-2.18724 -0.1699,-3.38672 -0.03,-1.19948 -0.051,-2.45567 -0.1094,-3.72657 -0.029,-0.63544 -0.068,-1.27476 -0.123,-1.9121 -0.055,-0.63735 -0.127,-1.2718 -0.2207,-1.9004 -0.094,-0.62859 -0.2104,-1.25042 -0.3457,-1.86328 -0.1353,-0.61286 -0.2883,-1.21676 -0.459,-1.81054 -0.1707,-0.59379 -0.3585,-1.17668 -0.5586,-1.74805 -0.2001,-0.57137 -0.4133,-1.13212 -0.6367,-1.67773 -0.4468,-1.09123 -0.9343,-2.12756 -1.4375,-3.09571 -0.5033,-0.96814 -1.0223,-1.86722 -1.5332,-2.68554 -0.5109,-0.81833 -1.014,-1.55621 -1.5254,-2.23633 -0.5113,-0.68012 -1.032,-1.30267 -1.5781,-1.89453 -0.5461,-0.59187 -1.1172,-1.15153 -1.7324,-1.70508 -0.6153,-0.55356 -1.2736,-1.10083 -1.9922,-1.66602 -0.7187,-0.5652 -1.4988,-1.14819 -2.3203,-1.72656 -0.8216,-0.57837 -1.6856,-1.15264 -2.5743,-1.69727 -0.8887,-0.54462 -1.8005,-1.06142 -2.7207,-1.52539 -0.4601,-0.23198 -0.9235,-0.44932 -1.3847,-0.65234 -0.4613,-0.20302 -0.921,-0.3904 -1.3789,-0.55859 -0.458,-0.16822 -0.9129,-0.31749 -1.3653,-0.44922 -0.4523,-0.13174 -0.903,-0.24583 -1.3496,-0.34375 -0.4465,-0.0979 -0.8895,-0.17932 -1.3301,-0.2461 -0.4405,-0.0668 -0.8781,-0.1199 -1.3125,-0.1582 -0.8688,-0.0766 -1.7253,-0.0975 -2.5683,-0.0762 -0.8431,0.0213 -1.6725,0.0857 -2.4883,0.18359 -0.8158,0.0979 -1.617,0.22785 -2.4102,0.33399 -0.3965,0.0531 -0.7925,0.10126 -1.1855,0.13476 -0.393,0.0335 -0.7831,0.0532 -1.1738,0.0527 -0.3908,-4.7e-4 -0.782,-0.0215 -1.1719,-0.0703 -0.3899,-0.0489 -0.7794,-0.12663 -1.1699,-0.23828 -0.3905,-0.11165 -0.7814,-0.2584 -1.1739,-0.44726 -0.3924,-0.18886 -0.7859,-0.41874 -1.1816,-0.69922 -0.3957,-0.28049 -0.7942,-0.61113 -1.1953,-0.98438 -0.4011,-0.37324 -0.8039,-0.79035 -1.2129,-1.24414 -0.409,-0.45378 -0.8245,-0.94468 -1.2441,-1.46679 -0.4197,-0.52212 -0.8445,-1.07412 -1.2774,-1.65235 -0.8658,-1.15645 -1.7606,-2.41308 -2.6953,-3.7207 -0.9346,-1.30762 -1.909,-2.66628 -2.9336,-4.02734 -1.0245,-1.36107 -2.0989,-2.72403 -3.207,-4.07032 -1.1081,-1.34629 -2.2505,-2.67569 -3.4082,-3.96875 -1.1577,-1.29305 -2.3305,-2.55059 -3.5039,-3.75195 -1.1734,-1.20136 -2.3468,-2.34677 -3.502,-3.41797 -1.1552,-1.0712 -2.2923,-2.06847 -3.4316,-3.01367 -1.1394,-0.9452 -2.2811,-1.83892 -3.4434,-2.70508 -1.1623,-0.86616 -2.3463,-1.70499 -3.5703,-2.53906 -1.224,-0.83407 -2.4879,-1.66279 -3.8125,-2.51172 -1.3246,-0.84894 -2.7088,-1.71648 -4.1309,-2.57812 -1.422,-0.86165 -2.8828,-1.71794 -4.3574,-2.54102 -1.4746,-0.82308 -2.963,-1.61441 -4.4453,-2.34766 -0.7411,-0.36662 -1.4802,-0.71818 -2.2148,-1.05273 -0.7346,-0.33455 -1.465,-0.6512 -2.1875,-0.94727 -0.7225,-0.29607 -1.4377,-0.57212 -2.1465,-0.82812 -0.7088,-0.256 -1.4119,-0.49182 -2.1094,-0.71094 -0.69751,-0.21912 -1.38941,-0.422 -2.07812,-0.60742 -0.6887,-0.18543 -1.37429,-0.35485 -2.05664,-0.50977 -1.36469,-0.30983 -2.71829,-0.56067 -4.07226,-0.76757 -1.35398,-0.20691 -2.70746,-0.36858 -4.07032,-0.49805 -1.36286,-0.12947 -2.73509,-0.22603 -4.10742,-0.29883 -1.37233,-0.0728 -2.74571,-0.12197 -4.10937,-0.1543 -0.10585,-0.003 -0.20482,3.7e-4 -0.31055,-0.002 24.03898,73.38984 82.73828,131.07441 156.75778,153.69727 z"
         transform="scale(0.26458333)" />
      <path
         id="path30672"
         style="opacity:1;fill:#000000;fill-opacity:1;stroke:none;stroke-width:102.54;stroke-linecap:round;stroke-linejoin:round;stroke-miterlimit:4;stroke-dasharray:none;paint-order:normal"
         d="m 1168.498,627.41992 c 0.088,-0.20239 0.1906,-0.41636 0.2754,-0.61719 0.4187,-0.9914 0.8017,-1.96583 1.1465,-2.94335 0.3449,-0.97753 0.6508,-1.95675 0.916,-2.96094 0.2653,-1.0042 0.4901,-2.03211 0.67,-3.10352 0.1798,-1.0714 0.3156,-2.18685 0.416,-3.33008 0.1004,-1.14322 0.1648,-2.31437 0.2031,-3.49804 0.038,-1.18368 0.051,-2.37951 0.045,-3.57227 -0.01,-1.19276 -0.031,-2.38226 -0.064,-3.55273 -0.034,-1.17048 -0.077,-2.32167 -0.1387,-3.45508 -0.062,-1.13341 -0.1408,-2.24964 -0.25,-3.34766 -0.1092,-1.09801 -0.2474,-2.17791 -0.4238,-3.24218 -0.1764,-1.06428 -0.3912,-2.11234 -0.6543,-3.14454 -0.2631,-1.03219 -0.5738,-2.0487 -0.918,-3.03711 -0.3442,-0.9884 -0.7227,-1.94969 -1.1172,-2.86914 -0.3945,-0.91945 -0.805,-1.79772 -1.2187,-2.62304 -0.4138,-0.82532 -0.8303,-1.59672 -1.2325,-2.30274 -0.4021,-0.706 -0.7908,-1.34543 -1.1757,-1.94336 -0.385,-0.59793 -0.7654,-1.15386 -1.1524,-1.6914 -0.774,-1.07509 -1.5723,-2.0776 -2.4707,-3.19727 -0.8984,-1.11966 -1.8972,-2.35675 -2.9961,-3.64453 -0.5494,-0.64389 -1.1234,-1.3003 -1.7226,-1.96094 -0.5993,-0.66063 -1.2242,-1.32581 -1.8731,-1.98633 -0.6489,-0.66052 -1.3227,-1.31686 -2.0137,-1.95703 -0.6909,-0.64016 -1.3987,-1.26496 -2.1171,-1.86133 -0.7185,-0.59636 -1.4466,-1.16425 -2.1778,-1.69335 -0.7312,-0.52911 -1.4659,-1.01864 -2.1953,-1.45704 -0.7294,-0.4384 -1.4546,-0.82672 -2.1484,-1.21093 -0.6939,-0.38422 -1.3573,-0.76477 -1.9629,-1.19141 -0.3028,-0.21332 -0.5905,-0.43765 -0.8613,-0.67969 -0.2709,-0.24204 -0.5236,-0.50231 -0.7559,-0.78515 -0.2323,-0.28284 -0.4437,-0.58812 -0.6309,-0.92383 -0.1872,-0.33571 -0.3508,-0.7009 -0.4863,-1.10156 -0.1355,-0.40067 -0.2434,-0.83635 -0.3301,-1.30274 -0.087,-0.46639 -0.1528,-0.96289 -0.2031,-1.48437 -0.1007,-1.04296 -0.14,-2.18724 -0.1699,-3.38672 -0.03,-1.19948 -0.051,-2.45567 -0.1094,-3.72656 -0.029,-0.63545 -0.068,-1.27477 -0.123,-1.91211 -0.055,-0.63734 -0.1271,-1.2718 -0.2207,-1.90039 -0.094,-0.6286 -0.2105,-1.25042 -0.3457,-1.86329 -0.1353,-0.61286 -0.2883,-1.21675 -0.459,-1.81054 -0.1708,-0.59379 -0.3585,-1.17668 -0.5586,-1.74805 -0.2001,-0.57137 -0.4134,-1.13212 -0.6367,-1.67773 -0.4468,-1.09123 -0.9343,-2.12756 -1.4375,-3.09571 -0.5033,-0.96814 -1.0223,-1.86722 -1.5332,-2.68554 -0.511,-0.81833 -1.0141,-1.55444 -1.5254,-2.23438 -0.5114,-0.67994 -1.032,-1.30486 -1.5782,-1.89648 -0.5461,-0.59162 -1.1172,-1.15171 -1.7324,-1.70508 -0.6152,-0.55338 -1.2735,-1.09886 -1.9922,-1.66406 -0.7186,-0.5652 -1.497,-1.1482 -2.3183,-1.72657 -0.8214,-0.57837 -1.6858,-1.15264 -2.5742,-1.69726 -0.8885,-0.54462 -1.8007,-1.06143 -2.7207,-1.52539 -0.4601,-0.23198 -0.9236,-0.44933 -1.3848,-0.65235 -0.4612,-0.20301 -0.9209,-0.3904 -1.3789,-0.55859 -0.458,-0.16819 -0.9128,-0.3175 -1.3653,-0.44922 -0.4524,-0.13172 -0.9029,-0.24583 -1.3496,-0.34375 -0.4466,-0.0979 -0.8894,-0.17931 -1.33,-0.24609 -0.4407,-0.0668 -0.878,-0.1199 -1.3125,-0.15821 -0.8691,-0.0766 -1.7271,-0.0975 -2.5704,-0.0762 -0.8432,0.0213 -1.6724,0.0857 -2.4882,0.1836 -0.8159,0.0979 -1.617,0.22784 -2.4102,0.33398 -0.3966,0.0531 -0.7926,0.10126 -1.1855,0.13477 -0.393,0.0335 -0.7831,0.0532 -1.1739,0.0527 -0.3907,-4.7e-4 -0.7819,-0.0215 -1.1718,-0.0703 -0.39,-0.0489 -0.7795,-0.12663 -1.17,-0.23828 -0.3904,-0.11166 -0.7814,-0.2584 -1.1738,-0.44727 -0.3924,-0.18886 -0.7859,-0.41873 -1.1816,-0.69922 -0.3958,-0.28049 -0.7943,-0.61107 -1.1953,-0.98437 -0.4011,-0.3733 -0.804,-0.79027 -1.2129,-1.24414 -0.409,-0.45388 -0.8227,-0.94457 -1.2422,-1.4668 -0.4196,-0.52223 -0.8465,-1.07595 -1.2793,-1.6543 -0.8656,-1.15669 -1.7589,-2.4129 -2.6934,-3.7207 -0.9344,-1.3078 -1.909,-2.66628 -2.9336,-4.02734 -1.0245,-1.36107 -2.0987,-2.72421 -3.207,-4.07032 -1.1083,-1.34611 -2.2503,-2.67593 -3.4082,-3.96875 -1.158,-1.29281 -2.3323,-2.54882 -3.5059,-3.75 -1.1736,-1.20117 -2.3467,-2.34676 -3.5019,-3.41797 -1.1552,-1.0712 -2.2923,-2.06828 -3.4317,-3.01367 -1.1393,-0.94538 -2.281,-1.83868 -3.4433,-2.70507 -1.1623,-0.8664 -2.3463,-1.70482 -3.5703,-2.53907 -1.2241,-0.83425 -2.488,-1.66474 -3.8125,-2.51367 -1.3246,-0.84894 -2.7088,-1.71666 -4.1309,-2.57812 -1.422,-0.86147 -2.8828,-1.71623 -4.3574,-2.53907 -1.4746,-0.82283 -2.9631,-1.61459 -4.4453,-2.34765 -0.7412,-0.36653 -1.4803,-0.71824 -2.2149,-1.05274 -0.7346,-0.33449 -1.465,-0.65119 -2.1875,-0.94726 -0.7225,-0.29607 -1.4377,-0.57213 -2.1465,-0.82813 -0.7087,-0.256 -1.4119,-0.49181 -2.1093,-0.71094 -0.6975,-0.21912 -1.3896,-0.42199 -2.0782,-0.60742 -0.6885,-0.18542 -1.3724,-0.35485 -2.0546,-0.50976 -1.3645,-0.30983 -2.7185,-0.56067 -4.0723,-0.76758 -1.3538,-0.20691 -2.7075,-0.36858 -4.0703,-0.49805 -1.3629,-0.12947 -2.7349,-0.22603 -4.1074,-0.29883 -1.3726,-0.0728 -2.7455,-0.12196 -4.1094,-0.15429 -2.7278,-0.0647 -5.4202,-0.0645 -8.0039,-0.0645 v 0.002 c -1.2919,0 -2.5575,-0.002 -3.8067,0.0117 -1.2492,0.0134 -2.4812,0.0418 -3.7109,0.0957 -1.22968,0.0539 -2.45614,0.13442 -3.68946,0.25586 -1.23332,0.12144 -2.47425,0.28397 -3.73437,0.5 -1.26013,0.21604 -2.53887,0.48587 -3.82227,0.79687 -1.28339,0.31101 -2.57089,0.66144 -3.84765,1.04102 -1.27677,0.37958 -2.54296,0.78724 -3.78321,1.20898 -0.95056,0.32324 -1.86764,0.65983 -2.78125,0.99414 0.428,1.39316 0.8754,2.77802 1.32813,4.16016 0.10573,0.002 0.2047,-5.6e-4 0.31055,0.002 1.36366,0.0323 2.73704,0.0815 4.10937,0.1543 1.37233,0.0728 2.74456,0.16936 4.10742,0.29883 1.36286,0.12947 2.71634,0.29114 4.07032,0.49805 1.35397,0.2069 2.70757,0.45774 4.07226,0.76757 0.68235,0.15492 1.36794,0.32434 2.05664,0.50977 0.68871,0.18542 1.38061,0.3883 2.07812,0.60742 0.6975,0.21912 1.4006,0.45494 2.1094,0.71094 0.7088,0.256 1.424,0.53205 2.1465,0.82812 0.7225,0.29607 1.4529,0.61272 2.1875,0.94727 0.7346,0.33455 1.4737,0.68611 2.2148,1.05273 1.4823,0.73325 2.9707,1.52458 4.4453,2.34766 1.4746,0.82308 2.9354,1.67937 4.3574,2.54102 1.4221,0.86164 2.8063,1.72918 4.1309,2.57812 1.3246,0.84893 2.5885,1.67765 3.8125,2.51172 1.224,0.83407 2.408,1.6729 3.5703,2.53906 1.1623,0.86616 2.304,1.75988 3.4434,2.70508 1.1393,0.9452 2.2764,1.94247 3.4316,3.01367 1.1552,1.0712 2.3286,2.21661 3.502,3.41797 1.1734,1.20136 2.3462,2.4589 3.5039,3.75195 1.1577,1.29306 2.3001,2.62246 3.4082,3.96875 1.1081,1.34629 2.1825,2.70925 3.207,4.07032 1.0246,1.36106 1.999,2.71972 2.9336,4.02734 0.9347,1.30762 1.8295,2.56425 2.6953,3.7207 0.4329,0.57823 0.8577,1.13023 1.2774,1.65235 0.4196,0.52211 0.8351,1.01301 1.2441,1.46679 0.409,0.45379 0.8118,0.8709 1.2129,1.24414 0.4011,0.37325 0.7996,0.70389 1.1953,0.98438 0.3957,0.28048 0.7892,0.51036 1.1816,0.69922 0.3925,0.18886 0.7834,0.33561 1.1739,0.44726 0.3905,0.11165 0.78,0.18943 1.1699,0.23828 0.3899,0.0489 0.7811,0.0698 1.1719,0.0703 0.3907,4.6e-4 0.7808,-0.0192 1.1738,-0.0527 0.393,-0.0335 0.789,-0.0817 1.1855,-0.13476 0.7932,-0.10614 1.5944,-0.23608 2.4102,-0.33399 0.8158,-0.0979 1.6452,-0.16227 2.4883,-0.18359 0.843,-0.0213 1.6995,-4.3e-4 2.5683,0.0762 0.4344,0.0383 0.872,0.0914 1.3125,0.1582 0.4406,0.0668 0.8836,0.14818 1.3301,0.2461 0.4466,0.0979 0.8973,0.21201 1.3496,0.34375 0.4524,0.13173 0.9073,0.281 1.3653,0.44922 0.4579,0.16819 0.9176,0.35557 1.3789,0.55859 0.4612,0.20302 0.9246,0.42036 1.3847,0.65234 0.9202,0.46397 1.832,0.98077 2.7207,1.52539 0.8887,0.54463 1.7527,1.1189 2.5743,1.69727 0.8215,0.57837 1.6016,1.16136 2.3203,1.72656 0.7186,0.56519 1.3769,1.11246 1.9922,1.66602 0.6152,0.55355 1.1863,1.11321 1.7324,1.70508 0.5461,0.59186 1.0668,1.21441 1.5781,1.89453 0.5114,0.68012 1.0145,1.418 1.5254,2.23633 0.5109,0.81832 1.0299,1.7174 1.5332,2.68554 0.5032,0.96815 0.9907,2.00448 1.4375,3.09571 0.2234,0.54561 0.4366,1.10636 0.6367,1.67773 0.2001,0.57137 0.3879,1.15426 0.5586,1.74805 0.1707,0.59378 0.3237,1.19768 0.459,1.81054 0.1353,0.61286 0.252,1.23469 0.3457,1.86328 0.094,0.6286 0.1654,1.26305 0.2207,1.9004 0.055,0.63734 0.094,1.27666 0.123,1.9121 0.059,1.2709 0.08,2.52709 0.1094,3.72657 0.03,1.19948 0.069,2.34376 0.1699,3.38672 0.05,0.52148 0.1165,1.01798 0.2032,1.48437 0.087,0.46639 0.1945,0.90207 0.33,1.30274 0.1355,0.40066 0.2992,0.7659 0.4864,1.10156 0.1872,0.33566 0.3985,0.64108 0.6308,0.92383 0.2324,0.28274 0.485,0.54323 0.7559,0.78515 0.2709,0.24193 0.5585,0.46649 0.8613,0.67969 0.6056,0.42639 1.2691,0.80737 1.9629,1.19141 0.6939,0.38403 1.4191,0.77057 2.1485,1.20898 0.7293,0.4384 1.464,0.92774 2.1953,1.45703 0.7312,0.52929 1.4593,1.0987 2.1777,1.69531 0.7184,0.59661 1.4262,1.22098 2.1172,1.86133 0.691,0.64036 1.3648,1.2965 2.0137,1.95703 0.6489,0.66052 1.2737,1.32393 1.873,1.98438 0.5993,0.66044 1.1732,1.3173 1.7227,1.96094 1.0989,1.28727 2.0976,2.52486 2.9961,3.64453 0.8984,1.11966 1.6966,2.12218 2.4707,3.19726 0.387,0.53755 0.7674,1.09153 1.1523,1.68946 0.3849,0.59793 0.7736,1.2393 1.1758,1.94531 0.4022,0.70601 0.8186,1.47741 1.2324,2.30273 0.4138,0.82532 0.8243,1.7036 1.2188,2.62305 0.3944,0.91945 0.7729,1.88073 1.1171,2.86914 0.3443,0.98841 0.6549,2.00491 0.918,3.03711 0.2631,1.03219 0.4779,2.08026 0.6543,3.14453 0.1764,1.06428 0.3146,2.14417 0.4238,3.24219 0.1093,1.09802 0.1885,2.21424 0.25,3.34765 0.062,1.13342 0.1053,2.28461 0.1387,3.45508 0.034,1.17048 0.058,2.35998 0.065,3.55274 0.01,1.19275 -0.01,2.38859 -0.045,3.57226 -7e-4,0.0238 0,0.0465 0,0.0703 10.3567,3.16535 21.013,5.63952 31.916,7.3789 z"
         transform="scale(0.26458333)" />
      <path
         id="path30670"
         style="opacity:0.924588;fill:#000000;stroke:none;stroke-width:102.54;stroke-linecap:round;stroke-linejoin:round;stroke-miterlimit:4;stroke-dasharray:none;paint-order:normal"
         d="m 1206.332,153.79102 c -131.6187,-6.5e-4 -238.31702,106.69762 -238.31638,238.3164 8e-5,24.38929 3.6733,47.91866 10.48047,70.07617 0.91361,-0.33431 1.83069,-0.6709 2.78125,-0.99414 1.24025,-0.42174 2.50644,-0.8294 3.78321,-1.20898 1.27676,-0.37958 2.56426,-0.73001 3.84765,-1.04102 1.2834,-0.311 2.56214,-0.58083 3.82227,-0.79687 1.26012,-0.21603 2.50105,-0.37856 3.73437,-0.5 1.23332,-0.12144 2.45978,-0.20196 3.68946,-0.25586 1.2297,-0.0539 2.4617,-0.0823 3.7109,-0.0957 1.2492,-0.0134 2.5148,-0.0117 3.8067,-0.0117 v -0.002 c 2.5837,0 5.2761,-2.1e-4 8.0039,0.0645 1.3639,0.0323 2.7368,0.0815 4.1094,0.15429 1.3725,0.0728 2.7445,0.16936 4.1074,0.29883 1.3628,0.12947 2.7165,0.29114 4.0703,0.49805 1.3538,0.20691 2.7078,0.45775 4.0723,0.76758 0.6822,0.15491 1.3661,0.32434 2.0546,0.50976 0.6886,0.18543 1.3807,0.3883 2.0782,0.60742 0.6974,0.21913 1.4006,0.45494 2.1093,0.71094 0.7088,0.256 1.424,0.53206 2.1465,0.82813 0.7225,0.29607 1.4529,0.61277 2.1875,0.94726 0.7346,0.3345 1.4737,0.68621 2.2149,1.05274 1.4822,0.73306 2.9707,1.52482 4.4453,2.34765 1.4746,0.82284 2.9354,1.6776 4.3574,2.53907 1.4221,0.86146 2.8063,1.72918 4.1309,2.57812 1.3245,0.84893 2.5884,1.67942 3.8125,2.51367 1.224,0.83425 2.408,1.67267 3.5703,2.53907 1.1623,0.86639 2.304,1.75969 3.4433,2.70507 1.1394,0.94539 2.2765,1.94247 3.4317,3.01367 1.1552,1.07121 2.3283,2.2168 3.5019,3.41797 1.1736,1.20118 2.3479,2.45719 3.5059,3.75 1.1579,1.29282 2.2999,2.62264 3.4082,3.96875 1.1083,1.34611 2.1825,2.70925 3.207,4.07032 1.0246,1.36106 1.9992,2.71954 2.9336,4.02734 0.9345,1.3078 1.8278,2.56401 2.6934,3.7207 0.4328,0.57835 0.8597,1.13207 1.2793,1.6543 0.4195,0.52223 0.8332,1.01292 1.2422,1.4668 0.4089,0.45387 0.8118,0.87084 1.2129,1.24414 0.401,0.3733 0.7995,0.70388 1.1953,0.98437 0.3957,0.28049 0.7892,0.51036 1.1816,0.69922 0.3924,0.18887 0.7834,0.33561 1.1738,0.44727 0.3905,0.11165 0.78,0.18942 1.17,0.23828 0.3899,0.0489 0.7811,0.0698 1.1718,0.0703 0.3908,4.7e-4 0.7809,-0.0192 1.1739,-0.0527 0.3929,-0.0335 0.7889,-0.0817 1.1855,-0.13477 0.7932,-0.10614 1.5943,-0.23607 2.4102,-0.33398 0.8158,-0.0979 1.645,-0.1623 2.4882,-0.1836 0.8433,-0.0213 1.7013,-4.4e-4 2.5704,0.0762 0.4345,0.0383 0.8718,0.0914 1.3125,0.15821 0.4406,0.0668 0.8834,0.14817 1.33,0.24609 0.4467,0.0979 0.8972,0.21203 1.3496,0.34375 0.4525,0.13172 0.9073,0.28103 1.3653,0.44922 0.458,0.16819 0.9177,0.35558 1.3789,0.55859 0.4612,0.20302 0.9247,0.42037 1.3848,0.65235 0.92,0.46396 1.8322,0.98077 2.7207,1.52539 0.8884,0.54462 1.7528,1.11889 2.5742,1.69726 0.8213,0.57837 1.5997,1.16137 2.3183,1.72657 0.7187,0.5652 1.377,1.11068 1.9922,1.66406 0.6152,0.55337 1.1863,1.11346 1.7324,1.70508 0.5462,0.59162 1.0668,1.21654 1.5782,1.89648 0.5113,0.67994 1.0144,1.41605 1.5254,2.23438 0.5109,0.81832 1.0299,1.7174 1.5332,2.68554 0.5032,0.96815 0.9907,2.00448 1.4375,3.09571 0.2233,0.54561 0.4366,1.10636 0.6367,1.67773 0.2001,0.57137 0.3878,1.15426 0.5586,1.74805 0.1707,0.59379 0.3237,1.19768 0.459,1.81054 0.1352,0.61287 0.252,1.23469 0.3457,1.86329 0.094,0.62859 0.1653,1.26305 0.2207,1.90039 0.055,0.63734 0.094,1.27666 0.123,1.91211 0.059,1.27089 0.079,2.52708 0.1094,3.72656 0.03,1.19948 0.069,2.34376 0.1699,3.38672 0.05,0.52148 0.1164,1.01798 0.2031,1.48437 0.087,0.46639 0.1946,0.90207 0.3301,1.30274 0.1355,0.40066 0.2991,0.76585 0.4863,1.10156 0.1872,0.33571 0.3986,0.64099 0.6309,0.92383 0.2323,0.28284 0.485,0.54311 0.7559,0.78515 0.2708,0.24204 0.5585,0.46637 0.8613,0.67969 0.6056,0.42664 1.269,0.80719 1.9629,1.19141 0.6938,0.38421 1.419,0.77253 2.1484,1.21093 0.7294,0.4384 1.4641,0.92793 2.1953,1.45704 0.7312,0.5291 1.4593,1.09699 2.1778,1.69335 0.7184,0.59637 1.4262,1.22117 2.1171,1.86133 0.691,0.64017 1.3648,1.29651 2.0137,1.95703 0.6489,0.66052 1.2738,1.3257 1.8731,1.98633 0.5992,0.66064 1.1732,1.31705 1.7226,1.96094 1.0989,1.28778 2.0977,2.52487 2.9961,3.64453 0.8984,1.11967 1.6967,2.12218 2.4707,3.19727 0.387,0.53754 0.7674,1.09347 1.1524,1.6914 0.3849,0.59793 0.7736,1.23736 1.1757,1.94336 0.4022,0.70602 0.8187,1.47742 1.2325,2.30274 0.4137,0.82532 0.8242,1.70359 1.2187,2.62304 0.3945,0.91945 0.773,1.88074 1.1172,2.86914 0.3442,0.98841 0.6549,2.00492 0.918,3.03711 0.2631,1.0322 0.4779,2.08026 0.6543,3.14454 0.1764,1.06427 0.3146,2.14417 0.4238,3.24218 0.1092,1.09802 0.1884,2.21425 0.25,3.34766 0.062,1.13341 0.1052,2.2846 0.1387,3.45508 0.033,1.17047 0.058,2.35997 0.064,3.55273 0.01,1.19276 -0.01,2.38859 -0.045,3.57227 -0.038,1.18367 -0.1027,2.35482 -0.2031,3.49804 -0.1004,1.14323 -0.2362,2.25868 -0.416,3.33008 -0.1799,1.07141 -0.4047,2.09932 -0.67,3.10352 -0.2652,1.00419 -0.5711,1.98341 -0.916,2.96094 -0.3448,0.97752 -0.7278,1.95195 -1.1465,2.94335 -0.085,0.20083 -0.1877,0.4148 -0.2754,0.61719 12.3234,1.96597 24.957,3.00202 37.834,3.00196 81.2,-9.9e-4 148.4104,-47.5037 200.6211,-109.62696 0.2408,-0.28611 1.0895,-0.74686 0.5645,-0.94922 -31.2607,19.93637 -67.5658,30.52828 -104.6426,30.5293 -107.4858,8.3e-4 -194.6209,-87.13328 -194.6211,-194.61914 0.01,-68.85228 34.2804,-142.01102 90.1563,-171.82031 12.6431,-6.74502 27.3205,-12.07616 42.0293,-14.22071 4.4613,-0.65047 8.081,-1.55894 12.7148,-1.42773 2.3214,0.0657 6.6176,0.22583 10.2383,0.2168 3.2521,-0.008 6.2844,0.56517 8.2851,-0.20508 1.5834,-0.60961 2.3936,-1.01268 2.3164,-3.54102 0,0 -0.2837,-1.03291 -0.6582,-1.51172 -21.7632,-6.37815 -44.3253,-9.45314 -67.0039,-9.45507 z"
         transform="scale(0.26458333)" />
      <path
         style="opacity:1;fill:#000000;fill-opacity:1;stroke:#010101;stroke-width:1.43565px;stroke-linecap:butt;stroke-linejoin:miter;stroke-opacity:0"
         d="m 231.87669,147.72186 c -0.61156,0.0297 -1.83507,0.0892 -3.17281,0.46265 -1.33774,0.37343 -2.78944,1.06082 -4.17862,2.00562 -1.38919,0.94481 -2.7156,2.14691 -3.73883,3.48583 -1.02322,1.33892 -1.7431,2.81441 -2.22707,4.38734 -0.48397,1.57292 -0.73204,3.24304 -0.69857,4.95405 0.0335,1.711 0.34833,3.46268 0.84465,4.9131 0.49632,1.45043 1.17387,2.59951 2.02743,3.74979 0.85355,1.15029 1.88296,2.30176 2.95978,3.14814 1.07681,0.84637 2.20085,1.3878 3.11405,1.83832 0.9132,0.45053 1.6155,0.81012 11.70235,0.98986 10.08685,0.17975 29.55752,0.17987 40.2258,-0.10622 10.66828,-0.28609 12.53388,-0.85831 14.20323,-1.74717 1.66936,-0.88885 3.14259,-2.09432 4.20557,-3.32934 1.06298,-1.23502 1.71578,-2.49971 2.23078,-3.60653 0.51499,-1.10683 0.89216,-2.0558 1.08252,-3.18971 0.19037,-1.1339 0.19383,-2.45286 0.15845,-3.69161 -0.0354,-1.23875 -0.10963,-2.39727 -0.38806,-3.48967 -0.27843,-1.09241 -0.76121,-2.11873 -1.18684,-2.86593 -0.42564,-0.74719 -0.79423,-1.21522 -1.26964,-1.80771 -0.47541,-0.59249 -1.05761,-1.30942 -1.74436,-2.00847 -0.68675,-0.69905 -1.47808,-1.38012 -2.24998,-1.84409 -0.77191,-0.46398 -1.52443,-0.71065 -1.81122,-1.55872 -0.28679,-0.84807 -0.10734,-2.29769 -0.30563,-3.62822 -0.19829,-1.33052 -0.77458,-2.54205 -1.31529,-3.40811 -0.54072,-0.86606 -1.046,-1.38652 -1.80659,-1.98468 -0.76059,-0.59817 -1.7765,-1.2739 -2.7459,-1.6299 -0.96941,-0.356 -1.89223,-0.39198 -2.75565,-0.28837 -0.86342,0.10362 -1.66725,0.34691 -2.50485,-0.24679 -0.8376,-0.5937 -1.70895,-2.02489 -2.79326,-3.46535 -1.08431,-1.44046 -2.38162,-2.89008 -3.60417,-4.02377 -1.22256,-1.13369 -2.37038,-1.95131 -3.7722,-2.84976 -1.40182,-0.89846 -3.05759,-1.87767 -4.58685,-2.50435 -1.52925,-0.62668 -2.93189,-0.90062 -4.37425,-1.03764 -1.44236,-0.13702 -2.92431,-0.13702 -4.29154,-0.13702 -1.36724,0 -2.61969,0 -3.95332,0.22863 -1.33364,0.22864 -2.74822,0.68596 -3.99053,1.149 -1.24232,0.46303 -2.31223,0.93175 -3.41405,1.50821 -1.10183,0.57646 -2.23544,1.26063 -3.30529,2.10327 -1.06986,0.84264 -2.07578,1.84364 -2.99822,2.94027 -0.92244,1.09663 -1.76129,2.28874 -2.45012,3.40906 -0.68883,1.12032 -1.22759,2.16872 -1.81938,3.53796 -0.59178,1.36924 -1.23657,3.05918 -1.69375,4.71413 -0.45718,1.65496 -0.72677,3.27472 -0.86154,4.08446 -0.13477,0.80974 -0.13467,0.80971 -0.74623,0.83944 z"
         id="path30477" />
      <path
         style="opacity:1;fill:#000000;fill-opacity:1;stroke:#010101;stroke-width:1.43565px;stroke-linecap:butt;stroke-linejoin:miter;stroke-opacity:0"
         d="m 329.02401,78.956381 c -0.41228,0.02 -1.23709,0.06 -2.13891,0.31138 -0.90181,0.25133 -1.88046,0.71396 -2.81695,1.34984 -0.9365,0.63588 -1.83068,1.44493 -2.52048,2.34606 -0.68979,0.90113 -1.17508,1.89417 -1.50134,2.9528 -0.32626,1.05862 -0.4935,2.18265 -0.47093,3.33421 0.0226,1.15155 0.23482,2.33048 0.5694,3.30665 0.33459,0.97618 0.79135,1.74954 1.36677,2.52371 0.5754,0.77418 1.26937,1.54915 1.99529,2.11879 0.72591,0.56963 1.48367,0.93403 2.09929,1.23724 0.61562,0.30322 1.08906,0.54523 7.88896,0.6662 6.7999,0.12098 19.92577,0.12106 27.11763,-0.0715 7.19186,-0.19254 8.44953,-0.57766 9.57489,-1.17589 1.12538,-0.59822 2.11853,-1.40954 2.83513,-2.24074 0.71659,-0.8312 1.15666,-1.68237 1.50384,-2.42729 0.34718,-0.74493 0.60144,-1.38361 0.72977,-2.14676 0.12833,-0.76315 0.13067,-1.65085 0.10682,-2.48456 -0.0239,-0.83371 -0.0739,-1.61343 -0.26161,-2.34864 -0.1877,-0.73523 -0.51316,-1.42597 -0.80009,-1.92885 -0.28694,-0.50288 -0.53542,-0.81788 -0.85591,-1.21664 -0.32049,-0.39876 -0.71297,-0.88128 -1.17593,-1.35176 -0.46297,-0.47048 -0.99643,-0.92886 -1.51679,-1.24112 -0.52038,-0.31227 -1.02768,-0.47829 -1.22101,-1.04906 -0.19334,-0.57078 -0.0724,-1.54641 -0.20604,-2.4419 -0.13367,-0.89547 -0.52217,-1.71087 -0.88668,-2.29375 -0.36452,-0.58288 -0.70515,-0.93316 -1.21789,-1.33574 -0.51274,-0.40259 -1.1976,-0.85737 -1.8511,-1.09697 -0.65352,-0.2396 -1.27562,-0.26381 -1.85768,-0.19408 -0.58207,0.0697 -1.12396,0.23348 -1.68861,-0.1661 -0.56466,-0.39957 -1.15206,-1.3628 -1.88304,-2.33227 -0.73097,-0.96947 -1.60553,-1.94511 -2.42969,-2.70811 -0.82417,-0.76301 -1.59796,-1.31329 -2.54298,-1.91797 -0.94501,-0.60469 -2.06122,-1.26372 -3.09215,-1.68549 -1.03092,-0.42178 -1.97649,-0.60615 -2.94884,-0.69837 -0.97234,-0.0922 -1.97138,-0.0922 -2.89308,-0.0922 -0.9217,0 -1.76602,0 -2.66507,0.15387 -0.89905,0.15388 -1.85267,0.46167 -2.69015,0.77331 -0.8375,0.31163 -1.55876,0.62709 -2.30154,1.01507 -0.74278,0.38797 -1.50698,0.84844 -2.22821,1.41556 -0.72123,0.56712 -1.39935,1.24082 -2.0212,1.97888 -0.62185,0.73806 -1.18735,1.54038 -1.65172,2.29439 -0.46436,0.75401 -0.82756,1.45961 -1.2265,2.38114 -0.39894,0.92154 -0.83362,2.05892 -1.14182,3.17274 -0.3082,1.11384 -0.48994,2.20398 -0.58079,2.74896 -0.0909,0.54497 -0.0908,0.54495 -0.50306,0.56496 z"
         id="path8532" />
      <path
         sodipodi:type="star"
         style="font-variation-settings:normal;opacity:1;vector-effect:none;fill:#000000;fill-opacity:1;fill-rule:evenodd;stroke-width:15.8709;stroke-linecap:butt;stroke-linejoin:miter;stroke-miterlimit:4;stroke-dasharray:none;stroke-dashoffset:0;stroke-opacity:1;-inkscape-stroke:none;stop-color:#000000;stop-opacity:1"
         id="path13555"
         inkscape:flatsided="false"
         sodipodi:sides="5"
         sodipodi:cx="426.90024"
         sodipodi:cy="-696.57098"
         sodipodi:r1="88.17836"
         sodipodi:r2="14.838852"
         sodipodi:arg1="-0.03932276"
         sodipodi:arg2="-1.2507179"
         inkscape:rounded="1"
         inkscape:randomized="0"
         d="m 515.01043,-700.03751 c 80.12813,-25.58686 -36.70362,-80.55289 -83.44128,-10.61867 -55.67837,83.31232 -32.63175,15.44675 25.85549,96.81176 49.09551,68.2996 65.26832,-59.79943 -15.68581,-82.63873 -96.44029,-27.20835 -24.7745,-26.26134 -84.08367,54.50652 -49.78543,67.79833 77.04166,43.59481 73.74692,-40.45487 -3.925,-100.12801 17.32027,-31.67715 -77.82206,-63.12488 -79.86459,-26.39793 -17.65395,86.7425 61.26392,57.63624 94.0145,-34.67415 35.47901,6.68378 35.98699,-93.51983 0.4264,-84.11315 -87.9524,10.015 -35.88374,76.07602 62.02916,78.6982 4.60697,35.80795 100.06324,5.32644 z"
         transform="matrix(0.09045863,0,0,0.09045863,331.76414,132.10369)"
         inkscape:transform-center-x="0.17832086"
         inkscape:transform-center-y="0.28956774" />
    </g>
  </g>
</svg>
